<svg width="210" height="48" viewBox="0 0 210 48" fill="none" xmlns="http://www.w3.org/2000/svg">
<path d="M52.016 12.664C54.3627 12.664 56.4213 13.1227 58.192 14.04C59.984 14.9573 61.36 16.2693 62.32 17.976C63.3013 19.6613 63.792 21.624 63.792 23.864C63.792 26.104 63.3013 28.0667 62.32 29.752C61.36 31.416 59.984 32.7067 58.192 33.624C56.4213 34.5413 54.3627 35 52.016 35H44.208V12.664H52.016ZM51.856 31.192C54.2027 31.192 56.016 30.552 57.296 29.272C58.576 27.992 59.216 26.1893 59.216 23.864C59.216 21.5387 58.576 19.7253 57.296 18.424C56.016 17.1013 54.2027 16.44 51.856 16.44H48.688V31.192H51.856ZM83.6255 25.752C83.6255 26.392 83.5828 26.968 83.4975 27.48H70.5375C70.6442 28.76 71.0922 29.7627 71.8815 30.488C72.6708 31.2133 73.6415 31.576 74.7935 31.576C76.4575 31.576 77.6415 30.8613 78.3455 29.432H83.1775C82.6655 31.1387 81.6842 32.5467 80.2335 33.656C78.7828 34.744 77.0015 35.288 74.8895 35.288C73.1828 35.288 71.6468 34.9147 70.2815 34.168C68.9375 33.4 67.8815 32.3227 67.1135 30.936C66.3668 29.5493 65.9935 27.9493 65.9935 26.136C65.9935 24.3013 66.3668 22.6907 67.1135 21.304C67.8602 19.9173 68.9055 18.8507 70.2495 18.104C71.5935 17.3573 73.1402 16.984 74.8895 16.984C76.5748 16.984 78.0788 17.3467 79.4015 18.072C80.7455 18.7973 81.7802 19.832 82.5055 21.176C83.2522 22.4987 83.6255 24.024 83.6255 25.752ZM78.9855 24.472C78.9642 23.32 78.5482 22.4027 77.7375 21.72C76.9268 21.016 75.9348 20.664 74.7615 20.664C73.6522 20.664 72.7135 21.0053 71.9455 21.688C71.1988 22.3493 70.7402 23.2773 70.5695 24.472H78.9855ZM94.2875 30.872L98.7675 17.272H103.536L96.9755 35H91.5355L85.0075 17.272H89.8075L94.2875 30.872ZM124.58 12.664V35H120.1V25.496H110.532V35H106.052V12.664H110.532V21.848H120.1V12.664H124.58ZM145.469 25.752C145.469 26.392 145.427 26.968 145.341 27.48H132.381C132.488 28.76 132.936 29.7627 133.725 30.488C134.515 31.2133 135.485 31.576 136.637 31.576C138.301 31.576 139.485 30.8613 140.189 29.432H145.021C144.509 31.1387 143.528 32.5467 142.077 33.656C140.627 34.744 138.845 35.288 136.733 35.288C135.027 35.288 133.491 34.9147 132.125 34.168C130.781 33.4 129.725 32.3227 128.957 30.936C128.211 29.5493 127.837 27.9493 127.837 26.136C127.837 24.3013 128.211 22.6907 128.957 21.304C129.704 19.9173 130.749 18.8507 132.093 18.104C133.437 17.3573 134.984 16.984 136.733 16.984C138.419 16.984 139.923 17.3467 141.245 18.072C142.589 18.7973 143.624 19.832 144.349 21.176C145.096 22.4987 145.469 24.024 145.469 25.752ZM140.829 24.472C140.808 23.32 140.392 22.4027 139.581 21.72C138.771 21.016 137.779 20.664 136.605 20.664C135.496 20.664 134.557 21.0053 133.789 21.688C133.043 22.3493 132.584 23.2773 132.413 24.472H140.829ZM153.219 11.32V35H148.739V11.32H153.219ZM162.126 19.832C162.702 19.0213 163.491 18.3493 164.494 17.816C165.518 17.2613 166.68 16.984 167.982 16.984C169.496 16.984 170.862 17.3573 172.078 18.104C173.315 18.8507 174.286 19.9173 174.99 21.304C175.715 22.6693 176.078 24.2587 176.078 26.072C176.078 27.8853 175.715 29.496 174.99 30.904C174.286 32.2907 173.315 33.368 172.078 34.136C170.862 34.904 169.496 35.288 167.982 35.288C166.68 35.288 165.528 35.0213 164.526 34.488C163.544 33.9547 162.744 33.2827 162.126 32.472V43.448H157.646V17.272H162.126V19.832ZM171.502 26.072C171.502 25.0053 171.278 24.088 170.83 23.32C170.403 22.5307 169.827 21.9333 169.102 21.528C168.398 21.1227 167.63 20.92 166.798 20.92C165.987 20.92 165.219 21.1333 164.494 21.56C163.79 21.9653 163.214 22.5627 162.766 23.352C162.339 24.1413 162.126 25.0693 162.126 26.136C162.126 27.2027 162.339 28.1307 162.766 28.92C163.214 29.7093 163.79 30.3173 164.494 30.744C165.219 31.1493 165.987 31.352 166.798 31.352C167.63 31.352 168.398 31.1387 169.102 30.712C169.827 30.2853 170.403 29.6773 170.83 28.888C171.278 28.0987 171.502 27.16 171.502 26.072ZM195.813 25.752C195.813 26.392 195.77 26.968 195.685 27.48H182.725C182.832 28.76 183.28 29.7627 184.069 30.488C184.858 31.2133 185.829 31.576 186.981 31.576C188.645 31.576 189.829 30.8613 190.533 29.432H195.365C194.853 31.1387 193.872 32.5467 192.421 33.656C190.97 34.744 189.189 35.288 187.077 35.288C185.37 35.288 183.834 34.9147 182.469 34.168C181.125 33.4 180.069 32.3227 179.301 30.936C178.554 29.5493 178.181 27.9493 178.181 26.136C178.181 24.3013 178.554 22.6907 179.301 21.304C180.048 19.9173 181.093 18.8507 182.437 18.104C183.781 17.3573 185.328 16.984 187.077 16.984C188.762 16.984 190.266 17.3467 191.589 18.072C192.933 18.7973 193.968 19.832 194.693 21.176C195.44 22.4987 195.813 24.024 195.813 25.752ZM191.173 24.472C191.152 23.32 190.736 22.4027 189.925 21.72C189.114 21.016 188.122 20.664 186.949 20.664C185.84 20.664 184.901 21.0053 184.133 21.688C183.386 22.3493 182.928 23.2773 182.757 24.472H191.173ZM203.563 20.024C204.139 19.0853 204.886 18.3493 205.803 17.816C206.742 17.2827 207.808 17.016 209.003 17.016V21.72H207.819C206.411 21.72 205.344 22.0507 204.619 22.712C203.915 23.3733 203.563 24.5253 203.563 26.168V35H199.083V17.272H203.563V20.024Z" fill="url(#paint0_linear)"/>
<path d="M0 36L37 6V32C37 34.2091 35.2091 36 33 36H0Z" fill="#45C1DC"/>
<path d="M13 36L37 6V32C37 34.2091 35.2091 36 33 36H13Z" fill="#2BB3D1"/>
<path d="M25 36L37 17V32C37 34.2091 35.2091 36 33 36H25Z" fill="#2AABC7"/>
<defs>
<linearGradient id="paint0_linear" x1="47.3846" y1="26" x2="205.586" y2="30.6359" gradientUnits="userSpaceOnUse">
<stop stop-color="#45C1DC"/>
<stop offset="0.5" stop-color="#2BB3D1"/>
<stop offset="1" stop-color="#2AABC7"/>
</linearGradient>
</defs>
</svg>
